<mxfile host="65bd71144e">
    <diagram id="7h_W4El4eSeyt53r-UMk" name="Page-1">
        <mxGraphModel dx="1283" dy="1895" grid="1" gridSize="10" guides="1" tooltips="1" connect="1" arrows="1" fold="1" page="1" pageScale="1" pageWidth="850" pageHeight="1100" math="0" shadow="0">
            <root>
                <mxCell id="0"/>
                <mxCell id="1" parent="0"/>
                <mxCell id="2" value="Frontend" style="swimlane;whiteSpace=wrap;html=1;" parent="1" vertex="1">
                    <mxGeometry x="50" y="70" width="550" height="750" as="geometry"/>
                </mxCell>
                <mxCell id="9" style="edgeStyle=none;html=1;entryX=0.5;entryY=0;entryDx=0;entryDy=0;" parent="2" source="7" target="8" edge="1">
                    <mxGeometry relative="1" as="geometry"/>
                </mxCell>
                <mxCell id="7" value="" style="ellipse;fillColor=strokeColor;html=1;" parent="2" vertex="1">
                    <mxGeometry x="150" y="60" width="30" height="30" as="geometry"/>
                </mxCell>
                <mxCell id="11" style="edgeStyle=none;html=1;entryX=0.5;entryY=0;entryDx=0;entryDy=0;" parent="2" source="8" target="10" edge="1">
                    <mxGeometry relative="1" as="geometry"/>
                </mxCell>
                <mxCell id="8" value="Einloggen" style="html=1;align=center;verticalAlign=top;rounded=1;absoluteArcSize=1;arcSize=10;dashed=0;whiteSpace=wrap;" parent="2" vertex="1">
                    <mxGeometry x="95" y="180" width="140" height="40" as="geometry"/>
                </mxCell>
                <mxCell id="20" style="edgeStyle=none;html=1;entryX=0.5;entryY=0;entryDx=0;entryDy=0;" parent="2" source="42" target="19" edge="1">
                    <mxGeometry relative="1" as="geometry"/>
                </mxCell>
                <mxCell id="49" value="[Else]" style="edgeLabel;html=1;align=center;verticalAlign=middle;resizable=0;points=[];" parent="20" vertex="1" connectable="0">
                    <mxGeometry x="-0.48" y="2" relative="1" as="geometry">
                        <mxPoint as="offset"/>
                    </mxGeometry>
                </mxCell>
                <mxCell id="10" value="Benutzer wählt Prime Option aus" style="html=1;align=center;verticalAlign=top;rounded=1;absoluteArcSize=1;arcSize=10;dashed=0;whiteSpace=wrap;" parent="2" vertex="1">
                    <mxGeometry x="95" y="290" width="140" height="40" as="geometry"/>
                </mxCell>
                <mxCell id="19" value="Prime bestätigen" style="html=1;align=center;verticalAlign=top;rounded=1;absoluteArcSize=1;arcSize=10;dashed=0;whiteSpace=wrap;" parent="2" vertex="1">
                    <mxGeometry x="95" y="470" width="140" height="40" as="geometry"/>
                </mxCell>
                <mxCell id="41" style="edgeStyle=none;html=1;entryX=0.5;entryY=0;entryDx=0;entryDy=0;" parent="2" source="39" target="40" edge="1">
                    <mxGeometry relative="1" as="geometry"/>
                </mxCell>
                <mxCell id="39" value="&lt;span style=&quot;color: rgb(0, 0, 0); text-align: center;&quot;&gt;Bestellprozess folgen&lt;/span&gt;" style="shape=mxgraph.uml25.behaviorAction;html=1;rounded=1;absoluteArcSize=1;arcSize=10;align=left;spacingLeft=5;whiteSpace=wrap;" parent="2" vertex="1">
                    <mxGeometry x="70" y="580" width="190" height="60" as="geometry"/>
                </mxCell>
                <mxCell id="40" value="" style="ellipse;html=1;shape=endState;fillColor=strokeColor;" parent="2" vertex="1">
                    <mxGeometry x="150" y="690" width="30" height="30" as="geometry"/>
                </mxCell>
                <mxCell id="42" value="" style="rhombus;" parent="2" vertex="1">
                    <mxGeometry x="150" y="390" width="30" height="30" as="geometry"/>
                </mxCell>
                <mxCell id="43" value="" style="edgeStyle=none;html=1;entryX=0.5;entryY=0;entryDx=0;entryDy=0;" parent="2" source="10" target="42" edge="1">
                    <mxGeometry relative="1" as="geometry">
                        <mxPoint x="245" y="400" as="sourcePoint"/>
                        <mxPoint x="245" y="540" as="targetPoint"/>
                    </mxGeometry>
                </mxCell>
                <mxCell id="44" value="Kündigen auswählen" style="html=1;align=center;verticalAlign=top;rounded=1;absoluteArcSize=1;arcSize=10;dashed=0;whiteSpace=wrap;" parent="2" vertex="1">
                    <mxGeometry x="390" y="385" width="140" height="40" as="geometry"/>
                </mxCell>
                <mxCell id="45" style="edgeStyle=none;html=1;entryX=0;entryY=0.5;entryDx=0;entryDy=0;" parent="2" source="42" target="44" edge="1">
                    <mxGeometry relative="1" as="geometry"/>
                </mxCell>
                <mxCell id="48" value="[Benutzer will Prime Kündigen]" style="edgeLabel;html=1;align=center;verticalAlign=middle;resizable=0;points=[];" parent="45" vertex="1" connectable="0">
                    <mxGeometry x="-0.1182" y="-2" relative="1" as="geometry">
                        <mxPoint as="offset"/>
                    </mxGeometry>
                </mxCell>
                <mxCell id="76" style="edgeStyle=none;html=1;entryX=0.5;entryY=0;entryDx=0;entryDy=0;" parent="2" source="67" target="75" edge="1">
                    <mxGeometry relative="1" as="geometry"/>
                </mxCell>
                <mxCell id="67" value="" style="rhombus;" parent="2" vertex="1">
                    <mxGeometry x="430" y="595" width="30" height="30" as="geometry"/>
                </mxCell>
                <mxCell id="69" style="edgeStyle=none;html=1;entryX=1;entryY=0.55;entryDx=0;entryDy=0;entryPerimeter=0;" parent="2" source="67" target="39" edge="1">
                    <mxGeometry relative="1" as="geometry"/>
                </mxCell>
                <mxCell id="73" value="[Bestellen]" style="edgeLabel;html=1;align=center;verticalAlign=middle;resizable=0;points=[];" parent="69" vertex="1" connectable="0">
                    <mxGeometry x="-0.5986" y="4" relative="1" as="geometry">
                        <mxPoint as="offset"/>
                    </mxGeometry>
                </mxCell>
                <mxCell id="75" value="" style="ellipse;html=1;shape=endState;fillColor=strokeColor;" parent="2" vertex="1">
                    <mxGeometry x="430" y="690" width="30" height="30" as="geometry"/>
                </mxCell>
                <mxCell id="30" style="edgeStyle=none;html=1;entryX=0;entryY=0.5;entryDx=0;entryDy=0;" parent="1" source="19" target="47" edge="1">
                    <mxGeometry relative="1" as="geometry">
                        <mxPoint x="440" y="560" as="targetPoint"/>
                    </mxGeometry>
                </mxCell>
                <mxCell id="3" value="Backend" style="swimlane;whiteSpace=wrap;html=1;" parent="1" vertex="1">
                    <mxGeometry x="600" y="70" width="640" height="750" as="geometry"/>
                </mxCell>
                <mxCell id="29" value="Monatliche gebühr bezahlen" style="html=1;align=center;verticalAlign=top;rounded=1;absoluteArcSize=1;arcSize=10;dashed=0;whiteSpace=wrap;" parent="3" vertex="1">
                    <mxGeometry x="230" y="470" width="140" height="40" as="geometry"/>
                </mxCell>
                <mxCell id="52" style="edgeStyle=none;html=1;entryX=0;entryY=0.5;entryDx=0;entryDy=0;" parent="3" target="31" edge="1">
                    <mxGeometry relative="1" as="geometry">
                        <mxPoint x="425.90999999999985" y="420" as="sourcePoint"/>
                        <mxPoint x="605" y="420" as="targetPoint"/>
                    </mxGeometry>
                </mxCell>
                <mxCell id="35" value="" style="html=1;points=[];perimeter=orthogonalPerimeter;fillColor=strokeColor;" parent="3" vertex="1">
                    <mxGeometry x="420.91" y="400" width="9.09" height="80" as="geometry"/>
                </mxCell>
                <mxCell id="50" style="edgeStyle=none;html=1;" parent="3" source="47" target="29" edge="1">
                    <mxGeometry relative="1" as="geometry"/>
                </mxCell>
                <mxCell id="47" value="Daten Prüfen" style="html=1;align=center;verticalAlign=top;rounded=1;absoluteArcSize=1;arcSize=10;dashed=0;whiteSpace=wrap;" parent="3" vertex="1">
                    <mxGeometry x="40" y="470" width="140" height="40" as="geometry"/>
                </mxCell>
                <mxCell id="51" style="edgeStyle=none;html=1;entryX=0.018;entryY=0.275;entryDx=0;entryDy=0;entryPerimeter=0;" parent="3" source="29" target="35" edge="1">
                    <mxGeometry relative="1" as="geometry">
                        <Array as="points">
                            <mxPoint x="300" y="422"/>
                        </Array>
                    </mxGeometry>
                </mxCell>
                <mxCell id="53" value="Kündigung bestätigen" style="html=1;align=center;verticalAlign=top;rounded=1;absoluteArcSize=1;arcSize=10;dashed=0;whiteSpace=wrap;" parent="3" vertex="1">
                    <mxGeometry x="320" y="290" width="140" height="40" as="geometry"/>
                </mxCell>
                <mxCell id="56" style="edgeStyle=none;html=1;" parent="3" source="54" target="53" edge="1">
                    <mxGeometry relative="1" as="geometry"/>
                </mxCell>
                <mxCell id="54" value="Anfrage Validieren" style="html=1;align=center;verticalAlign=top;rounded=1;absoluteArcSize=1;arcSize=10;dashed=0;whiteSpace=wrap;" parent="3" vertex="1">
                    <mxGeometry x="60" y="290" width="140" height="40" as="geometry"/>
                </mxCell>
                <mxCell id="55" style="edgeStyle=none;html=1;entryX=0;entryY=0.5;entryDx=0;entryDy=0;" parent="1" source="44" target="54" edge="1">
                    <mxGeometry relative="1" as="geometry">
                        <Array as="points">
                            <mxPoint x="630" y="475"/>
                            <mxPoint x="630" y="380"/>
                        </Array>
                    </mxGeometry>
                </mxCell>
                <mxCell id="68" style="edgeStyle=none;html=1;entryX=1;entryY=0.5;entryDx=0;entryDy=0;" parent="1" source="35" target="67" edge="1">
                    <mxGeometry relative="1" as="geometry">
                        <mxPoint x="510" y="656" as="targetPoint"/>
                        <Array as="points">
                            <mxPoint x="1080" y="530"/>
                            <mxPoint x="1080" y="680"/>
                        </Array>
                    </mxGeometry>
                </mxCell>
                <mxCell id="83" style="edgeStyle=none;html=1;entryX=1;entryY=0.5;entryDx=0;entryDy=0;" parent="1" source="80" target="67" edge="1">
                    <mxGeometry relative="1" as="geometry">
                        <Array as="points">
                            <mxPoint x="1480" y="420"/>
                            <mxPoint x="1480" y="680"/>
                        </Array>
                    </mxGeometry>
                </mxCell>
                <mxCell id="84" value="&amp;lt;&amp;lt;Precondition&amp;gt;&amp;gt; Benutzer ist regristiert" style="text;html=1;align=center;verticalAlign=middle;resizable=0;points=[];autosize=1;strokeColor=none;fillColor=none;" parent="1" vertex="1">
                    <mxGeometry x="70" y="-2" width="240" height="30" as="geometry"/>
                </mxCell>
                <mxCell id="85" value="&amp;lt;&amp;lt;Postcondition&amp;gt;&amp;gt; Benutzer ist/kein PrimeKunde (mehr)&lt;div&gt;&amp;lt;&amp;lt;Postcondition&amp;gt;&amp;gt; Benutzer zahlt (keine) Liefergebühren&lt;/div&gt;" style="text;html=1;align=center;verticalAlign=middle;resizable=0;points=[];autosize=1;strokeColor=none;fillColor=none;" parent="1" vertex="1">
                    <mxGeometry x="300" width="330" height="40" as="geometry"/>
                </mxCell>
                <mxCell id="4" value="Database" style="swimlane;whiteSpace=wrap;html=1;" parent="1" vertex="1">
                    <mxGeometry x="1240" y="70" width="520" height="750" as="geometry"/>
                </mxCell>
                <mxCell id="31" value="Eintrag als Mitglied" style="html=1;align=center;verticalAlign=top;rounded=1;absoluteArcSize=1;arcSize=10;dashed=0;whiteSpace=wrap;" parent="4" vertex="1">
                    <mxGeometry x="85" y="400" width="140" height="40" as="geometry"/>
                </mxCell>
                <mxCell id="60" value="Eintrag aus Mitglied entfernen" style="html=1;align=center;verticalAlign=top;rounded=1;absoluteArcSize=1;arcSize=10;dashed=0;whiteSpace=wrap;" parent="4" vertex="1">
                    <mxGeometry x="80" y="290" width="140" height="40" as="geometry"/>
                </mxCell>
                <mxCell id="82" style="edgeStyle=none;html=1;entryX=0;entryY=0.5;entryDx=0;entryDy=0;" parent="4" source="80" target="60" edge="1">
                    <mxGeometry relative="1" as="geometry"/>
                </mxCell>
                <mxCell id="80" value="" style="html=1;points=[];perimeter=orthogonalPerimeter;fillColor=strokeColor;" parent="4" vertex="1">
                    <mxGeometry x="10" y="270" width="9.09" height="80" as="geometry"/>
                </mxCell>
                <mxCell id="81" style="edgeStyle=none;html=1;entryX=0.33;entryY=0.518;entryDx=0;entryDy=0;entryPerimeter=0;" parent="1" source="53" target="80" edge="1">
                    <mxGeometry relative="1" as="geometry"/>
                </mxCell>
                <mxCell id="86" value="" style="endArrow=classic;html=1;exitX=0.5;exitY=1;exitDx=0;exitDy=0;entryX=1;entryY=0.5;entryDx=0;entryDy=0;" edge="1" parent="1" source="31" target="67">
                    <mxGeometry width="50" height="50" relative="1" as="geometry">
                        <mxPoint x="1020" y="540" as="sourcePoint"/>
                        <mxPoint x="1070" y="490" as="targetPoint"/>
                        <Array as="points">
                            <mxPoint x="1395" y="680"/>
                        </Array>
                    </mxGeometry>
                </mxCell>
                <mxCell id="87" value="" style="endArrow=classic;html=1;exitX=0.5;exitY=1;exitDx=0;exitDy=0;entryX=1;entryY=0.5;entryDx=0;entryDy=0;" edge="1" parent="1" source="60" target="67">
                    <mxGeometry width="50" height="50" relative="1" as="geometry">
                        <mxPoint x="1210" y="540" as="sourcePoint"/>
                        <mxPoint x="1060" y="710" as="targetPoint"/>
                        <Array as="points">
                            <mxPoint x="1390" y="420"/>
                            <mxPoint x="1480" y="420"/>
                            <mxPoint x="1480" y="680"/>
                        </Array>
                    </mxGeometry>
                </mxCell>
            </root>
        </mxGraphModel>
    </diagram>
</mxfile>